#!OML:ASF F:\VICON\USERDATA\INSTALL\rory3\rory3.ASF
:FULLY-SPECIFIED
:DEGREES
177
root 0.7677167157939597 17.856186452161015 39.52518621093689 2.42910222843832 2.9560503435489647 0.686518297358576
lfemur -19.1951396854981 2.4798658509403957 -20.0624203155224
ltibia 70.44601300111924
lfoot 1.1240791553864742 -12.122406753689344
ltoes -8.364469614840472
rfemur -23.613337537965876 4.789267387016195 28.875004550792053
rtibia 61.0971899534645
rfoot 1.553626018081545 -4.811621260432258
rtoes -1.2007994696539008
lowerback 14.54225321256446 -0.1487819404898763 1.2542136426849406
upperback -0.6697972916887815 0.7923915008454279 1.69314974561012
thorax -9.439605041344148 0.308016544277819 0.49987441077538103
lowerneck -20.22956393072113 -4.752009444252993 -1.9587100097092838
upperneck 15.260125291887359 -7.001504443541266 2.8577427347684243
head 8.251264978495952 -3.0010534899322328 0.4995566959598606
lclavicle -1.9521729781560437e-15 1.1013548979497733e-15
lhumerus -50.26311332089153 -7.814222821203225 97.70831149580957
lradius 109.7772097790685
lwrist 46.56599993351778
lhand -18.0154252113046 6.535040535176571
lfingers 7.125020000000001
lthumb 8.254374186019126 36.24093538456695
rclavicle -1.952176533109819e-15 1.1013521049827522e-15
rhumerus -49.40980241437374 13.641424189307097 -101.32233661407666
rradius 113.51945720165556
rwrist -14.648470712162124
rhand -24.084978607528168 -113.13305321967842
rfingers 7.125020000000001
rthumb 4.100418796840256 14.263544730815166
178
root 0.7634449737160518 17.8538222282807 38.56458383665968 2.419242371219235 2.833423781388566 0.5761573315881632
lfemur -19.06038265928104 2.4378792331731116 -20.498740762403493
ltibia 69.47009579483905
lfoot 1.9404004030278177 -11.624591941357208
ltoes -8.312671433521837
rfemur -22.417233325427574 5.175119655901159 29.027310209515807
rtibia 59.90162101884066
rfoot 1.938692059293655 -4.78198095716363
rtoes -1.8654190016214047
lowerback 14.599921690587495 -0.08310623661483385 1.4728323826705711
upperback -0.6701329679322635 0.9296806729595134 1.6377080235618897
thorax -9.449174867422988 0.3508995443972034 0.4409690504353368
lowerneck -20.26088149832415 -4.781461643179403 -1.9588963225913059
upperneck 15.32790501868185 -7.0010122001199315 2.9100586989850976
head 8.228367768055655 -3.0271130492840372 0.49017399539741685
lclavicle -1.9521729781560437e-15 1.1013548979497733e-15
lhumerus -51.1322688651355 -8.15745534444261 97.63915189495795
lradius 110.19394569891264
lwrist 46.950688247309785
lhand -17.961183111397478 6.626946513607844
lfingers 7.125020000000001
lthumb 8.311315224073674 36.35220736772872
rclavicle -1.952176533109819e-15 1.1013521049827522e-15
rhumerus -48.91272688767654 13.840003676413662 -101.23455663849415
rradius 113.66556576724365
rwrist -14.703240982970215
rhand -23.979869622709927 -110.94640526608764
rfingers 7.125020000000001
rthumb 4.200327628770193 14.504695605113929
179
root 0.7775944811254776 17.90282771462818 40.21676627497467 2.5746361897375354 3.2133434733331803 0.7245028529459636
lfemur -18.773231519322326 2.3330578762012086 -20.183605657682072
ltibia 68.33985088367592
lfoot 1.9758721207598353 -11.949748287426546
ltoes -8.171309899787351
rfemur -19.874211882829467 5.649673414705088 29.588589123660036
rtibia 59.52650171001828
rfoot 2.538921999558786 -4.619009451597476
rtoes -1.9671739278015212
lowerback 14.557986874649101 -0.055076723849723674 1.5493718325661567
upperback -0.6886846480396789 1.0665049103943747 1.5740041820246715
thorax -9.448521768557674 0.34550530370383886 0.32047667842437444
lowerneck -20.26556127096071 -4.778256814212038 -1.9516815727445556
upperneck 15.281071455934697 -7.0514696291510335 2.915799121448558
head 8.233375836787085 -3.004827288337419 0.5079401322050235
lclavicle -1.9521729781560437e-15 1.1013548979497733e-15
lhumerus -51.30270503886451 -7.995370532380575 97.74422632271454
lradius 110.73980276360432
lwrist 46.61597210031253
lhand -17.907051703696307 6.691200240101882
lfingers 7.125020000000001
lthumb 8.229402832538307 36.24571509791254
rclavicle -1.952176533109819e-15 1.1013521049827522e-15
rhumerus -48.40340990746511 14.06239656511437 -101.15551544951988
rradius 113.67443960189232
rwrist -15.218322390272103
rhand -24.125218616234 -114.44188111760337
rfingers 7.125020000000001
rthumb 4.318738803094421 14.645865077652351
180
root 0.7650546317654559 17.870784198652697 38.26185793714595 2.4179857680563783 2.8986110064531543 0.5220015701354659
lfemur -21.698075024795813 1.8806158618523825 -21.10320922727286
ltibia 67.41035652788722
lfoot 1.1314650580328884 -12.912204035903667
ltoes -8.228877253398633
rfemur -22.20760546325836 5.1970084276176145 28.904602050687046
rtibia 59.10096670726904
rfoot 2.757331512177271 -4.5558920100712275
rtoes -1.9553576527216139
lowerback 14.555081239804808 -0.011444079827813813 1.6538321710893633
upperback -0.6958756243299913 1.1750597588310336 1.530758522033588
thorax -9.276337937329128 0.540311659851796 0.5020855330868409
lowerneck -20.30365766815036 -4.789583757148405 -1.9501083135451722
upperneck 15.323458310289444 -6.988596774038847 2.9807273465472477
head 8.232804016461404 -3.011143044619317 0.5054824871623734
lclavicle -1.9521729781560437e-15 1.1013548979497733e-15
lhumerus -51.25576317656849 -7.618307151505256 97.92907516900597
lradius 111.15333950191001
lwrist 46.698999344393705
lhand -17.85037166730712 6.714225690579941
lfingers 7.125020000000001
lthumb 8.422117321729633 36.39404143382289
rclavicle -1.952176533109819e-15 1.1013521049827522e-15
rhumerus -48.03933764675475 14.22821706485042 -101.12755546810695
rradius 113.57341096536678
rwrist -15.38855950730555
rhand -23.897092907697466 -107.56836281056856
rfingers 7.125020000000001
rthumb 4.262286982803531 14.788028575155733
181
root 0.7765881604973823 17.90854338968183 39.52789445948141 2.5663112934164127 3.149508418945355 0.6425576044787422
lfemur -21.033808699640687 2.0005770717835345 -20.62304916782256
ltibia 66.67469059948013
lfoot 0.2921782342631484 -12.829289915103155
ltoes -8.042414037267557
rfemur -19.90226389744148 5.566030174354534 29.660814529626993
rtibia 58.68235994663252
rfoot 3.821483748486612 -4.123708585536142
rtoes -1.8628476063761563
lowerback 14.379908651182317 -0.062062525869366225 1.4419613587895572
upperback -0.7183930492656134 1.2412189034174748 1.4988470179765165
thorax -9.435350997980661 0.48563365302550643 0.15373090330827677
lowerneck -20.182214929386088 -4.655745239056052 -1.9172565490189482
upperneck 15.20663786429674 -7.0526856224587675 2.9624557092466777
head 8.237545350094697 -2.9791831345914255 0.5187389249200197
lclavicle -1.9521729781560437e-15 1.1013548979497733e-15
lhumerus -50.91793662342808 -7.1725707590569225 98.08767545838134
lradius 111.36156297956657
lwrist 46.61272936289663
lhand -17.834547054541382 6.678059218088228
lfingers 7.125020000000001
lthumb 8.390970409569416 36.23663400983252
rclavicle -1.952176533109819e-15 1.1013521049827522e-15
rhumerus -47.80593021639234 14.343542911164153 -101.10743608914082
rradius 113.37954590820043
rwrist -15.29837960172024
rhand -24.039019112146175 -110.96252814789352
rfingers 7.125020000000001
rthumb 4.1984399926159375 14.602847320775751
182
root 0.7763025856008431 17.913500662024536 38.90907228810795 2.5337966526002766 3.0287774714740143 0.6183685525101419
lfemur -18.720484695147697 2.410798767456769 -20.03494800880292
ltibia 65.8184258448632
lfoot 0.4391244035610574 -11.898147082998653
ltoes -8.438656243534997
rfemur -21.05291638932167 5.176074537483308 28.832277206234256
rtibia 58.33746113832378
rfoot 3.9499244853509996 -3.8844710930074915
rtoes -1.0710492415049109
lowerback 14.397324030320462 -8.626697867353261e-05 1.549075549676398
upperback -0.7834069020130228 1.2836596401998863 1.459127019145141
thorax -9.255868990959518 0.6367955148862301 0.34486226027903183
lowerneck -20.165892044092427 -4.595151185358359 -1.9119733024043297
upperneck 15.214567426869301 -7.044231383551371 2.994524268303581
head 8.245886874457458 -2.9373818682873427 0.5356280491418686
lclavicle -1.9521729781560437e-15 1.1013548979497733e-15
lhumerus -49.86773343678674 -6.850313372227274 98.21538926167341
lradius 111.9595942054978
lwrist 46.903766685069094
lhand -17.806892246021793 6.646569154318181
lfingers 7.125020000000001
lthumb 8.456099655951537 36.236759076803445
rclavicle -1.952176533109819e-15 1.1013521049827522e-15
rhumerus -47.66701871568475 14.424298332174947 -101.08488305763748
rradius 113.19065201443715
rwrist -15.275082484553236
rhand -23.858402634269858 -103.82399298066923
rfingers 7.125020000000001
rthumb 4.150603571397618 14.576879210879392
183
root 0.776087647317717 17.91785751807685 38.904923350623605 2.4887906326265705 3.091933531629218 0.5803130259751208
lfemur -19.61895209977497 2.1950655333962388 -20.570971294005197
ltibia 64.44129598677881
lfoot 1.1887454745582968 -11.154611062365435
ltoes -8.018983522678122
rfemur -23.159337239967478 4.830879386692269 28.433065330343865
rtibia 58.491136643656226
rfoot 3.5162746727006517 -3.84649257228409
rtoes -0.14973346945903698
lowerback 14.307439432336865 -0.005455834800153825 1.4756649610892576
upperback -0.8229474631779121 1.3950598579522273 1.4835532654892525
thorax -9.405096579742645 0.5778223078632567 0.12291927265667885
lowerneck -20.02497363927634 -4.424703916301129 -1.8776310634553979
upperneck 15.157327661072387 -7.143506795763206 2.9618026092716367
head 8.238277581899178 -2.893409027110619 0.5448815489145358
lclavicle -1.9521729781560437e-15 1.1013548979497733e-15
lhumerus -51.78342111610584 -7.405771516459227 97.73387328031305
lradius 112.44633420919808
lwrist 47.120725049819036
lhand -17.782208528332387 6.6027569286627585
lfingers 7.125020000000001
lthumb 8.43600949387081 36.115190507513766
rclavicle -1.952176533109819e-15 1.1013521049827522e-15
rhumerus -47.48582567542191 14.542523598348321 -101.0425483028161
rradius 113.04949538491213
rwrist -15.135391038526155
rhand -24.066004123221262 -107.2486504166202
rfingers 7.125020000000001
rthumb 4.099970633967463 14.482600323110773
